<!DOCTYPE svg PUBLIC "-//W3C//DTD SVG 1.1//EN" "http://www.w3.org/Graphics/SVG/1.1/DTD/svg11.dtd">

<!-- Uploaded to: SVG Repo, www.svgrepo.com, Transformed by: SVG Repo Mixer Tools -->
<svg height="800px" width="800px" version="1.1" id="Layer_1" xmlns="http://www.w3.org/2000/svg"
    xmlns:xlink="http://www.w3.org/1999/xlink" viewBox="-50.2 -50.2 602.42 602.42" xml:space="preserve" fill="#000000">

    <g id="SVGRepo_bgCarrier" stroke-width="0">

        <path transform="translate(-40.2, -50.2), scale(18.825625)"
            d="M16,28.764114932881462C18.66261187450199,29.456918165700742,21.758534240858886,30.049203231488875,24.08453575903423,28.57978319246333C26.411668881537487,27.109648277689562,26.549329723323766,23.843496979890883,27.72718342271299,21.355625218661267C28.925251699492676,18.825056069563374,31.57493514275759,16.587032887387156,31.06581904516202,13.83386224004963C30.55555571449515,11.074487647418527,27.497761685248815,9.666614638419915,25.254013773270046,7.981351419640063C23.423224556785836,6.606258562101253,21.459900011700686,5.5282592404830035,19.243368067457077,4.954102761640549C17.083659006790842,4.394665324784918,14.726224343102015,3.81540452816263,12.689896130791162,4.726821493237514C10.716124966414828,5.610239261312705,10.449103593758634,8.403518682411146,8.698915493327192,9.673574262054274C6.12243881656909,11.543241058629086,1.7802667721923728,10.935516508283913,0.2713523770665862,13.73856187792654C-1.1603721977484178,16.39821503850508,-0.20041981530407504,20.223125981790865,1.803190729894192,22.48346555271266C3.7867787453270965,24.72121704310799,7.497199695333423,23.765546429032476,10.231882295270513,24.97536634345648C12.379080016488183,25.925283735476576,13.727724154167571,28.172875906673667,16,28.764114932881462"
            fill="#1a8e22" strokewidth="0" />

    </g>



</svg>