<!DOCTYPE svg PUBLIC "-//W3C//DTD SVG 1.1//EN" "http://www.w3.org/Graphics/SVG/1.1/DTD/svg11.dtd">

<!-- Uploaded to: SVG Repo, www.svgrepo.com, Transformed by: SVG Repo Mixer Tools -->
<svg version="1.1" id="Layer_1" xmlns="http://www.w3.org/2000/svg" xmlns:xlink="http://www.w3.org/1999/xlink"
    viewBox="0 0 512 512" xml:space="preserve" width="800px" height="800px" fill="#000000">

    <g id="SVGRepo_bgCarrier" stroke-width="0" />

    <g id="SVGRepo_tracerCarrier" stroke-linecap="round" stroke-linejoin="round" />

    <g id="SVGRepo_iconCarrier">
        <path style="fill:#5E3C16;"
            d="M262.144,492.19c0,10.941-8.869,19.81-19.81,19.81h-27.565c-10.941,0-19.81-8.869-19.81-19.81V19.81 C194.96,8.869,203.829,0,214.77,0h27.565c10.941,0,19.81,8.869,19.81,19.81V492.19H262.144z"
            transform="scale(1, 0.8)" />
        <path style="fill:#42270B;"
            d="M242.333,0h-13.782v512h13.782c10.941,0,19.81-8.869,19.81-19.81V19.809 C262.144,8.869,253.274,0,242.333,0z"
            transform="scale(1, 0.8)" />
        <g>
            <path style="fill:#C27526;" d="
                M428.232,149.127
                c-2.485,3.357-6.413,5.337-10.59,5.337
                h-299.85 
                c-7.277,0-13.174-5.899-13.174-13.174
                V56.259
                c0-7.277,5.899-13.174,13.174-13.174
                h299.85
                c4.177,0,8.106,1.98,10.59,5.337 
                l31.462,42.516
                c3.446,4.657,3.446,11.017,0,15.674
                L428.232,149.127z
                " />
        </g>
        <g>
            <path style="fill:#7E4F1F;"
                d="M459.694,90.938l-31.462-42.515c-2.484-3.357-6.413-5.337-10.59-5.337h-189.09v111.381h189.09 c4.177,0,8.106-1.98,10.59-5.337l31.462-42.515C463.139,101.955,463.139,95.594,459.694,90.938z" />

            <text y="95" font-size="45" fill="#e9dcb8" stroke="#0a0601" stroke-width="0.5" stroke-linecap="round"
                stroke-linejoin="round">
                <tspan x="165">Яблоки и</tspan>
                <tspan x="165" dy="40">Апельсины</tspan>
            </text>
        </g>
        <g>
            <rect x="194.962" y="154.464" style="fill:#42270B;" width="67.185" height="26.175" />

        </g>
    </g>

</svg>